<svg viewBox="0 0 21.8406 22.2404" fill="none" xmlns="http://www.w3.org/2000/svg" xmlns:xlink="http://www.w3.org/1999/xlink" x="0" y="0"><defs><clipPath id="clip5_67_2">
<rect width="11.0198" height="11.0198" fill="white" transform="translate(5.907000000000039, 6.116300000000024)"/>
</clipPath></defs><g id="Group 26_4">
<ellipse id="Ellipse 6_9" cx="10.919999999999959" cy="11.120300000000043" rx="10.9203" ry="11.1202" fill="currentColor"/>
<g id="mingcute:ai-fill_5" clip-path="url(#clip5_67_2)">
<g id="Group_6">
<path id="Vector_26" d="M10.088,8.6173c0.275,-0.803 1.385,-0.828 1.711,-0.073l0.027,0.073l0.371,1.084c0.085,0.249 0.222,0.476 0.402,0.667c0.181,0.191 0.4,0.341 0.643,0.44l0.1,0.037l1.083,0.37c0.804,0.275 0.828,1.385 0.074,1.711l-0.074,0.027l-1.083,0.371c-0.249,0.085 -0.477,0.222 -0.668,0.402c-0.191,0.18 -0.341,0.4 -0.44,0.643l-0.037,0.099l-0.37,1.084c-0.275,0.804 -1.385,0.828 -1.71,0.074l-0.029,-0.074l-0.37,-1.083c-0.084,-0.249 -0.222,-0.477 -0.402,-0.668c-0.18,-0.191 -0.399,-0.341 -0.643,-0.44l-0.099,-0.037l-1.083,-0.37c-0.804,-0.275 -0.829,-1.385 -0.074,-1.71l0.074,-0.029l1.083,-0.37c0.249,-0.085 0.476,-0.222 0.667,-0.402c0.191,-0.18 0.341,-0.4 0.44,-0.643l0.037,-0.099zM14.631,7.0343c0.086,0 0.17,0.024 0.243,0.069c0.073,0.046 0.131,0.111 0.169,0.188l0.022,0.054l0.161,0.471l0.472,0.161c0.086,0.029 0.161,0.083 0.216,0.155c0.056,0.072 0.088,0.159 0.094,0.25c0.006,0.091 -0.015,0.181 -0.061,0.26c-0.046,0.078 -0.114,0.142 -0.195,0.182l-0.054,0.022l-0.472,0.16l-0.16,0.472c-0.03,0.086 -0.084,0.161 -0.156,0.217c-0.072,0.055 -0.159,0.087 -0.25,0.093c-0.091,0.006 -0.181,-0.015 -0.26,-0.061c-0.078,-0.046 -0.141,-0.114 -0.181,-0.195l-0.022,-0.054l-0.161,-0.471l-0.472,-0.161c-0.086,-0.029 -0.161,-0.083 -0.217,-0.155c-0.055,-0.073 -0.087,-0.16 -0.093,-0.25c-0.006,-0.091 0.015,-0.181 0.061,-0.26c0.045,-0.079 0.113,-0.142 0.195,-0.182l0.054,-0.022l0.471,-0.161l0.161,-0.471c0.031,-0.091 0.09,-0.17 0.168,-0.226c0.078,-0.055 0.171,-0.085 0.267,-0.085z" fill="white"/>
</g>
</g>
</g></svg>